<?xml version="1.0" standalone="no"?>
<!DOCTYPE svg PUBLIC "-//W3C//DTD SVG 20010904//EN"
 "http://www.w3.org/TR/2001/REC-SVG-20010904/DTD/svg10.dtd">
<svg version="1.0" xmlns="http://www.w3.org/2000/svg"
 width="16.000000pt" height="16.000000pt" viewBox="0 0 16.000000 16.000000"
 preserveAspectRatio="xMidYMid meet">
<metadata>
Created by potrace 1.11, written by Peter Selinger 2001-2013
</metadata>
<g transform="translate(0.000000,16.000000) scale(0.004396,-0.004396)"
fill="#000000" stroke="none">
<path d="M2221 3222 c-102 -68 -162 -140 -236 -286 -17 -32 -31 -43 -85 -65
-120 -48 -290 -156 -376 -237 -63 -61 -122 -140 -165 -221 -34 -67 -44 -75
-54 -44 -6 21 -80 92 -114 110 -18 10 -25 8 -46 -13 -16 -16 -25 -36 -24 -53
l1 -28 9 31 c5 17 16 37 24 44 21 18 18 1 -9 -46 -22 -40 -23 -42 -7 -92 9
-29 31 -69 50 -89 l34 -37 -24 -18 c-111 -87 -214 -205 -277 -318 -92 -168
-146 -447 -118 -620 3 -19 8 -52 12 -73 10 -63 50 -179 84 -248 163 -323 438
-502 775 -503 173 -1 249 16 386 85 261 131 454 381 518 669 38 172 33 386
-10 510 -8 22 -13 101 -13 216 l-1 181 44 18 c24 10 63 33 86 51 40 30 47 32
105 28 l63 -4 -19 21 c-10 12 -31 27 -46 35 -19 10 -27 21 -26 37 3 38 -22 87
-46 88 -41 2 -71 -3 -104 -18 -30 -14 -36 -14 -75 3 -23 11 -42 17 -43 14 -3
-9 -44 33 -44 46 0 17 -51 112 -98 182 -23 32 -71 87 -108 121 -37 34 -64 64
-61 67 16 16 226 7 290 -12 9 -3 17 -1 17 4 0 28 -236 50 -300 28 -33 -11 -39
-9 -94 26 -65 42 -81 44 -176 24 -36 -8 -66 -13 -68 -11 -2 2 32 17 75 33 42
17 79 36 81 42 3 8 0 10 -7 6 -18 -12 -13 3 26 68 66 110 144 198 221 247 24
15 39 29 35 32 -4 3 -32 -11 -62 -31z"/>
</g>
</svg>
